<?xml version="1.0" encoding="UTF-8" standalone="no"?>
<!-- Created with Inkscape (http://www.inkscape.org/) -->

<svg
   xmlns:dc="http://purl.org/dc/elements/1.1/"
   xmlns:cc="http://creativecommons.org/ns#"
   xmlns:rdf="http://www.w3.org/1999/02/22-rdf-syntax-ns#"
   xmlns:svg="http://www.w3.org/2000/svg"
   xmlns="http://www.w3.org/2000/svg"
   xmlns:sodipodi="http://sodipodi.sourceforge.net/DTD/sodipodi-0.dtd"
   xmlns:inkscape="http://www.inkscape.org/namespaces/inkscape"
   width="16"
   height="16"
   viewBox="0 0 16 16"
   id="svg7273"
   version="1.1"
   inkscape:version="0.91 r13725"
   sodipodi:docname="icon-raw.svg">
  <defs
     id="defs7275" />
  <sodipodi:namedview
     id="base"
     pagecolor="#ffffff"
     bordercolor="#666666"
     borderopacity="1.0"
     inkscape:pageopacity="0.0"
     inkscape:pageshadow="2"
     inkscape:zoom="12.661617"
     inkscape:cx="-4.853372"
     inkscape:cy="9.6468105"
     inkscape:document-units="px"
     inkscape:current-layer="layer1"
     showgrid="false"
     units="px"
     inkscape:snap-bbox="true"
     inkscape:bbox-paths="true"
     inkscape:bbox-nodes="true"
     inkscape:snap-bbox-edge-midpoints="true"
     inkscape:snap-bbox-midpoints="true"
     inkscape:snap-object-midpoints="true"
     inkscape:snap-center="true"
     inkscape:window-width="1280"
     inkscape:window-height="755"
     inkscape:window-x="0"
     inkscape:window-y="1"
     inkscape:window-maximized="1">
    <inkscape:grid
       type="xygrid"
       id="grid7821"
       empspacing="4" />
  </sodipodi:namedview>
  <metadata
     id="metadata7278">
    <rdf:RDF>
      <cc:Work
         rdf:about="">
        <dc:format>image/svg+xml</dc:format>
        <dc:type
           rdf:resource="http://purl.org/dc/dcmitype/StillImage" />
        <dc:title></dc:title>
      </cc:Work>
    </rdf:RDF>
  </metadata>
  <g
     inkscape:label="Layer 1"
     inkscape:groupmode="layer"
     id="layer1"
     transform="translate(0,-1036.3622)">
    <circle
       r="8"
       cy="1044.3622"
       cx="-12"
       id="circle7892"
       style="opacity:0.98999999;fill:#006eb8;fill-opacity:1;stroke:none;stroke-width:1;stroke-miterlimit:4;stroke-dasharray:none;stroke-opacity:0.23428572" />
    <g
       id="g7894"
       inkscape:transform-center-x="-1.8109409"
       inkscape:transform-center-y="-5.4414135"
       transform="matrix(0.96799547,0.25096771,-0.25096771,0.96799547,244.35336,31.672939)">
      <path
         inkscape:connector-curvature="0"
         style="opacity:0.98999999;fill:#d38d5f;fill-opacity:1;stroke:none;stroke-width:1;stroke-miterlimit:4;stroke-dasharray:none;stroke-opacity:0.23428572"
         d="m 8.0996094,1038.3622 0,0.2168 A 2,2 0 0 0 7,1040.3622 l 0,12 1.0996094,0 1,0 1.9003906,0 0,-12 a 2,2 0 0 0 -1.9003906,-1.9961 l 0,0 -0.09961,0 -0.900391,0 z"
         id="path7896" />
      <circle
         style="opacity:0.98999999;fill:#deaa87;fill-opacity:1;stroke:none;stroke-width:1;stroke-miterlimit:4;stroke-dasharray:none;stroke-opacity:0.23428572"
         id="circle7898"
         cx="8"
         cy="1040.3622"
         r="2" />
      <rect
         y="1052.3622"
         x="9"
         height="2"
         width="2"
         id="rect7900"
         style="opacity:0.98999999;fill:#d38d5f;fill-opacity:1;stroke:none;stroke-width:1;stroke-miterlimit:4;stroke-dasharray:none;stroke-opacity:0.23428572" />
      <rect
         style="opacity:0.98999999;fill:#deaa87;fill-opacity:1;stroke:none;stroke-width:1;stroke-miterlimit:4;stroke-dasharray:none;stroke-opacity:0.23428572"
         id="rect7902"
         width="4"
         height="14.000017"
         x="6"
         y="1040.3622" />
    </g>
    <path
       inkscape:connector-curvature="0"
       style="opacity:0.98999999;fill:#d38d5f;fill-opacity:1;stroke:none;stroke-width:1;stroke-miterlimit:4;stroke-dasharray:none;stroke-opacity:0.23428572"
       d="m -15.648739,1038.8429 0.05781,0.2089 a 2,2 0 0 0 -0.584299,2.0119 l 3.19984,11.5655 1.059795,-0.2932 0.963793,-0.2667 1.831582,-0.5067 -3.19984,-11.5656 a 2,2 0 0 0 -2.363849,-1.417 l 0,0 -0.096,0.027 -0.86779,0.2401 z"
       id="path7904" />
    <circle
       transform="matrix(0.96379251,-0.26665333,0.26665333,0.96379251,0,0)"
       style="opacity:0.98999999;fill:#deaa87;fill-opacity:1;stroke:none;stroke-width:1;stroke-miterlimit:4;stroke-dasharray:none;stroke-opacity:0.23428572"
       id="circle7906"
       cx="-292.19266"
       cy="999.05615"
       r="2" />
    <rect
       transform="matrix(0.96379251,-0.26665333,0.26665333,0.96379251,0,0)"
       y="1011.0562"
       x="-291.19266"
       height="2"
       width="2"
       id="rect7908"
       style="opacity:0.98999999;fill:#d38d5f;fill-opacity:1;stroke:none;stroke-width:1;stroke-miterlimit:4;stroke-dasharray:none;stroke-opacity:0.23428572" />
    <rect
       transform="matrix(0.96379251,-0.26665333,0.26665333,0.96379251,0,0)"
       style="opacity:0.98999999;fill:#deaa87;fill-opacity:1;stroke:none;stroke-width:1;stroke-miterlimit:4;stroke-dasharray:none;stroke-opacity:0.23428572"
       id="rect7910"
       width="4"
       height="14.000017"
       x="-294.19266"
       y="999.05615" />
    <g
       id="g8011"
       inkscape:export-xdpi="90"
       inkscape:export-ydpi="90">
      <circle
         r="8"
         cy="1044.3622"
         cx="8"
         id="circle7971"
         style="opacity:0.98999999;fill:#006eb8;fill-opacity:1;stroke:none;stroke-width:1;stroke-miterlimit:4;stroke-dasharray:none;stroke-opacity:0.23428572" />
      <path
         id="path7975"
         transform="translate(0,1036.3622)"
         d="M 11.597656 2.4765625 L 11.544922 2.6835938 A 2 2 0 0 0 10.03125 4.1328125 L 7.0195312 15.75 L 7.9824219 16 A 8 8 0 0 0 8 16 A 8 8 0 0 0 11.271484 15.289062 L 13.904297 5.1367188 A 2 2 0 0 0 12.564453 2.7285156 L 12.46875 2.703125 L 11.597656 2.4765625 z "
         style="opacity:0.98999999;fill:#d38d5f;fill-opacity:1;stroke:none;stroke-width:1;stroke-miterlimit:4;stroke-dasharray:none;stroke-opacity:0.23428572" />
      <path
         id="circle7977"
         transform="translate(0,1036.3622)"
         d="M 10.964844 2.3847656 A 2 2 0 0 0 9.0644531 3.8828125 L 5.9921875 15.732422 A 8 8 0 0 0 8 16 A 8 8 0 0 0 10.128906 15.710938 L 12.935547 4.8867188 A 2 2 0 0 0 11.501953 2.4492188 A 2 2 0 0 0 10.964844 2.3847656 z "
         style="opacity:0.98999999;fill:#deaa87;fill-opacity:1;stroke:none;stroke-width:1;stroke-miterlimit:4;stroke-dasharray:none;stroke-opacity:0.23428572" />
      <path
         id="path7983"
         transform="translate(0,1036.3622)"
         d="M 5.7539062 2.1699219 A 2 2 0 0 0 5.3164062 2.21875 L 5.2207031 2.2441406 L 4.3535156 2.484375 L 4.4082031 2.6894531 A 2 2 0 0 0 3.8242188 4.7011719 L 6.9296875 15.919922 A 8 8 0 0 0 7.9941406 16 L 8.0839844 15.974609 L 8.953125 15.734375 L 9.0058594 15.925781 A 8 8 0 0 0 10.943359 15.435547 L 10.878906 15.201172 L 7.6796875 3.6347656 A 2 2 0 0 0 5.7539062 2.1699219 z "
         style="opacity:0.98999999;fill:#d38d5f;fill-opacity:1;stroke:none;stroke-width:1;stroke-miterlimit:4;stroke-dasharray:none;stroke-opacity:0.23428572" />
      <path
         id="circle7985"
         transform="translate(0,1036.3622)"
         d="M 4.8496094 2.4355469 A 2 2 0 0 0 4.2558594 2.5078125 A 2 2 0 0 0 2.8613281 4.96875 L 5.828125 15.691406 A 8 8 0 0 0 8 16 A 8 8 0 0 0 9.9921875 15.742188 L 6.7167969 3.9023438 A 2 2 0 0 0 4.8496094 2.4355469 z "
         style="opacity:0.98999999;fill:#deaa87;fill-opacity:1;stroke:none;stroke-width:1;stroke-miterlimit:4;stroke-dasharray:none;stroke-opacity:0.23428572" />
    </g>
  </g>
</svg>
